# xmcd
#
# Track frame offsets: 
#        150
#        16407
#        36740
#        58187
#        75062
#        94692
#        112132
#        135860
#        149817
#        168232
#
# Disc length: 2547 seconds
#
# Revision: 2
# Processed by: cddbd v1.5.2PL0 Copyright (c) Steve Scherf et al.
# Submitted via: ExactAudioCopy v0.99pb3
#
DISCID=8409f10a
DTITLE=Rob Ickes - Slide City
DYEAR=1999
DGENRE=Blues
TTITLE0=Dwight's Blues
TTITLE1=Watermelon Man
TTITLE2=Can't Find My Way Home
TTITLE3=The Last Polar Bear
TTITLE4=The Way We Was
TTITLE5=California Blues
TTITLE6=Central Park
TTITLE7=Be Thou My Vision
TTITLE8=New Blues
TTITLE9=Don't Give It Up
EXTD=
EXTT0=
EXTT1=
EXTT2=
EXTT3=
EXTT4=
EXTT5=
EXTT6=
EXTT7=
EXTT8=
EXTT9=
PLAYORDER=
